<?xml version="1.0" encoding="UTF-8" standalone="no"?>
<!DOCTYPE svg PUBLIC "-//W3C//DTD SVG 1.1//EN" "http://www.w3.org/Graphics/SVG/1.1/DTD/svg11.dtd">
<svg width="100%" height="100%" viewBox="0 0 205 152" version="1.1" xmlns="http://www.w3.org/2000/svg" xmlns:xlink="http://www.w3.org/1999/xlink" xml:space="preserve" xmlns:serif="http://www.serif.com/" style="fill-rule:evenodd;clip-rule:evenodd;stroke-linejoin:round;stroke-miterlimit:2;">
    <g transform="matrix(1,0,0,1,-447.263,-296.268)">
        <g transform="matrix(0.635641,0,0,0.635641,295.345,167.233)">
            <path d="M525.4,412.519C550.5,387.219 561.125,376.119 561.125,376.119L560.8,265.3L561.1,204L497,236C461.8,253.6 432.6,268 432.1,268C431.6,268 403,253.4 368.6,235.5C334.2,217.6 305.7,203 305.2,203C304.8,203 289.8,217.7 271.7,235.8L239,268.5L239,440.819C239,440.819 298.1,441.419 368.7,441.219L497.1,441.019L525.4,412.519Z" style="fill:rgb(1,1,1);"/>
            <path d="M258,339.7C258,318.6 258.2,301.1 258.5,300.9C258.7,300.6 283.3,312.6 313.2,327.6L367.5,354.8L422.2,327.4L477,300L477,421.519L258,421.519L258,339.7Z" style="fill:rgb(254,254,254);"/>
        </g>
    </g>
</svg>
