<?xml version="1.0" encoding="UTF-8" standalone="no"?>
<!DOCTYPE svg PUBLIC "-//W3C//DTD SVG 1.1//EN" "http://www.w3.org/Graphics/SVG/1.1/DTD/svg11.dtd">
<svg width="100%" height="100%" viewBox="0 0 257 160" version="1.1" xmlns="http://www.w3.org/2000/svg" xmlns:xlink="http://www.w3.org/1999/xlink" xml:space="preserve" xmlns:serif="http://www.serif.com/" style="fill-rule:evenodd;clip-rule:evenodd;stroke-linejoin:round;stroke-miterlimit:2;">
    <g transform="matrix(1,0,0,1,-4.7,-5.3)">
        <path d="M23.3,146.7L23.3,152.8L33.2,152.8C32.2,154.8 31,156.2 29.4,157.2C27.9,158.1 25.9,158.6 23.7,158.6C20.2,158.6 17.3,157.5 14.9,155.2C14.5,154.8 14.1,154.4 13.8,153.9L13.2,153L13.2,152.9C13,152.6 12.9,152.3 12.7,152L12.6,151.9C12.5,151.6 12.3,151.4 12.2,151.1C12.2,151 12.1,150.9 12.1,150.9C12,150.6 11.9,150.4 11.8,150.1C11.8,150 11.7,149.9 11.7,149.7C11.6,149.5 11.6,149.2 11.5,149C11.5,148.8 11.5,148.6 11.4,148.4C11.4,148.2 11.3,148.1 11.3,147.9C11.3,147.5 11.2,147.1 11.2,146.7C11.2,143.5 12.3,140.8 14.6,138.6C16.9,136.4 19.7,135.3 23.1,135.3C27,135.3 30.4,136.8 33.3,139.9L37.9,135.4C35.8,133.2 33.6,131.6 31.5,130.7C28.9,129.6 26.1,129.1 23.1,129.1C17.4,129.1 12.8,131.1 9.2,135C6.2,138.3 4.7,142.2 4.7,146.7C4.7,150 5.5,153 7.1,155.9C7.4,156.4 7.7,156.8 8,157.2C8,157.3 8.1,157.4 8.2,157.5L9.1,158.7C10.4,160.2 12,161.5 13.7,162.5C16.5,164 19.7,164.8 23.2,164.8C26.5,164.8 29.4,164.1 31.9,162.7C34.4,161.3 36.4,159.3 37.9,156.6C39.5,153.9 40.2,151.1 40.2,148.2L40.2,146.7L23.3,146.7ZM56.5,138.3C52.7,138.3 49.6,139.6 47.1,142.1C44.6,144.6 43.3,147.8 43.3,151.6C43.3,155.3 44.6,158.4 47.1,160.9C49.6,163.4 52.9,164.6 56.8,164.6C59.4,164.6 61.6,164.1 63.4,163.3C65.3,162.4 66.9,161 68.2,159.1L62.8,156.6C61.1,158.3 59,159.1 56.7,159.1C54.7,159.1 53.1,158.6 51.8,157.5C50.5,156.4 49.7,155 49.4,153.2L70,153.2L70,152C70,147.9 68.7,144.5 66.2,142C63.8,139.5 60.5,138.3 56.5,138.3M49.8,148.3C50.5,146.8 51.3,145.7 52.1,145.1C53.5,144.1 55,143.6 56.8,143.6C58.4,143.6 59.9,144 61.1,144.9C62.3,145.8 63.2,146.9 63.6,148.3L49.8,148.3ZM87.8,138.3C86.6,138.3 85.4,138.5 84.2,139C83,139.5 81.7,140.3 80.3,141.5L80.3,138.9L73.9,138.9L73.9,164L80.3,164L80.3,153.9C80.3,151.3 80.4,149.6 80.6,148.8C81,147.3 81.6,146.1 82.5,145.3C83.4,144.4 84.5,144 85.8,144C86.8,144 87.6,144.3 88.3,144.8C89,145.3 89.4,146.1 89.7,147C90,148 90.1,150 90.1,153L90.1,164L96.5,164L96.5,147.4C96.5,144.5 95.8,142.3 94.3,140.9C92.5,139.1 90.3,138.3 87.8,138.3M113.3,138.3C109.5,138.3 106.4,139.6 103.9,142.1C101.4,144.6 100.2,147.8 100.2,151.6C100.2,155.3 101.5,158.4 104,160.9C106.5,163.4 109.7,164.6 113.7,164.6C116.3,164.6 118.5,164.1 120.3,163.3C122.2,162.4 123.8,161 125.1,159.1L119.7,156.6C118,158.3 115.9,159.1 113.6,159.1C111.6,159.1 110,158.6 108.7,157.5C107.4,156.4 106.6,155 106.3,153.2L126.8,153.2L126.8,152C126.8,147.9 125.5,144.5 123,142C120.5,139.5 117.3,138.3 113.3,138.3M106.6,148.3C107.3,146.8 108.1,145.7 108.9,145.1C110.2,144.1 111.8,143.6 113.6,143.6C115.2,143.6 116.7,144 117.9,144.9C119.1,145.8 120,146.9 120.4,148.3L106.6,148.3ZM137.1,139.2C136.1,139.8 135.4,140.8 134.8,142L134.8,138.8L129.2,138.8L129.2,164L135.6,164L135.6,152.7C135.6,149.2 135.9,146.8 136.6,145.7C137.3,144.5 138.1,143.9 139,143.9C139.5,143.9 140.1,144.1 140.8,144.4L142.7,139C141.8,138.6 141,138.4 140.2,138.4C139.1,138.3 138.1,138.6 137.1,139.2M163.6,141.6C162.5,140.5 161.2,139.6 159.9,139.1C158.6,138.5 157.1,138.3 155.6,138.3C152.3,138.3 149.4,139.5 147.1,142C144.8,144.5 143.6,147.6 143.6,151.5C143.6,155.2 144.8,158.4 147.2,160.9C149.6,163.4 152.5,164.7 155.8,164.7C157.3,164.7 158.6,164.4 159.9,163.9C161.2,163.4 162.4,162.5 163.7,161.4L163.7,164.1L170.1,164.1L170.1,139L163.7,139L163.7,141.6L163.6,141.6ZM161.9,156.8C160.6,158.2 158.9,158.9 156.9,158.9C154.9,158.9 153.3,158.2 152,156.8C150.7,155.4 150,153.6 150,151.4C150,149.2 150.6,147.5 152,146.1C153.3,144.7 155,144 156.9,144C158.9,144 160.6,144.7 161.9,146C163.2,147.4 163.9,149.1 163.9,151.3C163.9,153.6 163.3,155.4 161.9,156.8M174.4,164L180.8,164L180.8,129.2L174.4,129.2L174.4,164ZM192.4,103.4C191.3,102.3 190.1,101.5 188.7,100.9C187.4,100.3 186,100.1 184.5,100.1C181.2,100.1 178.5,101.3 176.2,103.7C173.9,106.1 172.8,109.3 172.8,113.1C172.8,116.8 174,119.8 176.3,122.3C178.7,124.8 181.5,126 184.7,126C186.1,126 187.5,125.7 188.7,125.2C189.9,124.7 191.2,123.9 192.4,122.7L192.4,125.3L198.6,125.3L198.6,100.6L192.4,100.6L192.4,103.4ZM190.7,118.3C189.4,119.6 187.8,120.3 185.8,120.3C183.9,120.3 182.3,119.6 181,118.2C179.7,116.8 179,115.1 179,112.9C179,110.8 179.6,109 180.9,107.7C182.2,106.3 183.8,105.7 185.8,105.7C187.8,105.7 189.4,106.4 190.7,107.7C192,109 192.7,110.8 192.7,112.9C192.7,115.2 192.1,116.9 190.7,118.3M223.4,103.4C222.1,102.2 220.8,101.4 219.5,100.8C218.2,100.3 216.9,100 215.4,100C212.3,100 209.7,101.1 207.4,103.2C204.9,105.6 203.7,108.7 203.7,112.6C203.7,116.3 204.9,119.3 207.2,121.7C209.5,124.1 212.3,125.3 215.7,125.3C217.2,125.3 218.6,125.1 219.8,124.6C221,124.1 222.2,123.3 223.3,122.2C223.3,124.2 223.1,125.7 222.7,126.5C222.3,127.3 221.6,128 220.5,128.5C219.5,129 218.1,129.3 216.4,129.3C215.1,129.3 213.9,129.1 213,128.7C212,128.3 211.2,127.8 210.6,127.1L203.7,127.1C204.2,128.8 205.1,130.2 206.2,131.4C207.3,132.6 208.7,133.5 210.4,134.1C212.1,134.7 214.1,135 216.6,135C221.2,135 224.6,133.7 226.9,131C228.6,129 229.4,126 229.4,121.8L229.4,100.7L223.2,100.7L223.2,103.4L223.4,103.4ZM221.8,117.8C220.5,119.1 218.9,119.7 217,119.7C215,119.7 213.4,119 212,117.7C210.7,116.4 210,114.7 210,112.7C210,110.7 210.6,109.1 211.9,107.8C213.2,106.5 214.8,105.8 216.8,105.8C218.8,105.8 220.4,106.4 221.7,107.7C223,109 223.6,110.6 223.6,112.7C223.7,114.8 223.1,116.5 221.8,117.8M260.8,113.6C260.8,109.5 259.6,106.3 257.1,103.8C254.6,101.3 251.5,100.1 247.5,100.1C243.8,100.1 240.7,101.3 238.3,103.8C235.8,106.3 234.6,109.4 234.6,113.2C234.6,116.9 235.8,119.9 238.3,122.4C240.8,124.8 243.9,126.1 247.8,126.1C250.3,126.1 252.5,125.6 254.3,124.8C256.1,123.9 257.7,122.5 259,120.7L253.7,118.3C252,119.9 250,120.7 247.7,120.7C245.8,120.7 244.1,120.2 242.9,119.1C241.6,118.1 240.9,116.7 240.6,114.9L260.7,114.9L260.8,113.6ZM240.9,110C241.6,108.5 242.4,107.4 243.2,106.8C244.5,105.8 246.1,105.3 247.8,105.3C249.4,105.3 250.8,105.7 252,106.6C253.2,107.5 254,108.6 254.4,110L240.9,110ZM16.4,117.4L29.7,117.4L32.8,125.3L39.5,125.3L26.6,92L20.1,92L7.1,125.4L13.1,125.4L16.4,117.4ZM23.4,100.9L27.5,111.5L19,111.5L23.4,100.9ZM54.5,126C56,126 57.3,125.7 58.5,125.2C59.7,124.7 61,123.9 62.2,122.7L62.2,125.3L68.4,125.3L68.4,91.1L62.2,91.1L62.2,103.4C61.8,103 61.4,102.6 60.9,102.3C60.2,101.7 59.4,101.3 58.5,100.9C57.2,100.3 55.8,100.1 54.3,100.1C51,100.1 48.3,101.3 46,103.7C43.7,106.1 42.6,109.2 42.6,113.1C42.6,116.8 43.8,119.8 46.1,122.3C48.5,124.8 51.3,126 54.5,126M50.7,107.8C52,106.4 53.6,105.8 55.6,105.8C57.6,105.8 59.3,106.5 60.5,107.8C61.8,109.1 62.5,110.9 62.5,113C62.5,115.2 61.8,117 60.5,118.3C59.2,119.7 57.6,120.3 55.6,120.3C53.7,120.3 52.1,119.6 50.7,118.2C49.4,116.8 48.7,115.1 48.7,112.9C48.8,110.9 49.5,109.1 50.7,107.8M84.7,115.2L78.4,100.6L72,100.6L82.6,125.3L86.6,125.3L97.3,100.6L91,100.6L84.7,115.2ZM111.7,126C113.1,126 114.5,125.7 115.7,125.2C116.9,124.7 118.2,123.9 119.4,122.7L119.4,125.3L125.6,125.3L125.6,100.6L119.4,100.6L119.4,103.3C118.3,102.2 117.1,101.4 115.7,100.8C114.4,100.2 113,100 111.5,100C108.2,100 105.5,101.2 103.2,103.6C102.5,104.4 101.9,105.2 101.4,106.1C100.3,108.1 99.8,110.3 99.8,112.9C99.8,116.6 101,119.6 103.3,122.1C105.6,124.8 108.4,126 111.7,126M107.9,107.8C108.5,107.1 109.3,106.6 110.1,106.3C110.9,106 111.8,105.8 112.8,105.8C113.8,105.8 114.7,106 115.6,106.3C116.4,106.6 117.1,107.1 117.8,107.8C119.1,109.1 119.8,110.9 119.8,113C119.8,115.2 119.1,117 117.8,118.3C116.5,119.7 114.9,120.3 112.9,120.3C111,120.3 109.4,119.6 108.1,118.2C106.8,116.8 106.1,115.1 106.1,112.9C106,110.9 106.6,109.1 107.9,107.8M145.9,106.5C146.6,107 147,107.7 147.3,108.7C147.6,109.7 147.7,111.6 147.7,114.6L147.7,125.4L153.9,125.4L153.9,109.1C153.9,108.1 153.8,107.1 153.6,106.3C153.3,104.8 152.6,103.6 151.7,102.7C150,101 147.9,100.1 145.4,100.1C144.2,100.1 143,100.3 141.9,100.8C140.8,101.3 139.5,102.1 138,103.3L138,100.8L131.8,100.8L131.8,125.5L138,125.5L138,115.6C138,113 138.1,111.4 138.3,110.6C138.7,109.1 139.3,108 140.2,107.1C140.5,106.8 140.9,106.5 141.3,106.4C142,106.1 142.7,105.9 143.5,105.9C144.3,105.9 145,106.1 145.6,106.4C145.7,106.3 145.8,106.4 145.9,106.5M166.9,91.6L160.7,91.6L160.7,100.7L157.5,100.7L157.5,106L160.7,106L160.7,125.4L166.9,125.4L166.9,106L170.6,106L170.6,100.7L166.9,100.7L166.9,91.6Z" style="fill:rgb(6,53,122);fill-rule:nonzero;"/>
        <g>
            <path d="M103.4,60.3L104,59.4L103,60C102.1,59.5 101.1,58.9 100,58.3L102.6,56.3L97.7,57.1C96.5,56.5 95.3,56 94,55.4L102,52.9L76,47.8L102.3,49.5L90.1,39.6L103.6,46.3L75.5,11.3L105.6,43.9L93,9.7L108.3,42.3L107.9,31.6L111.2,41.6L118,5.3L114.2,42L123.6,23.3L117,43.4L135.9,19.7L119.2,45.7L138,33.9L120.7,48.6L121.6,48.4C118.5,51.7 115.5,55.3 112.6,59.2C112.2,59.1 111.7,59.1 111.2,59.1C109,59.1 107.1,60.1 105.8,61.7C105.1,61.3 104.3,60.8 103.4,60.3" style="fill:rgb(255,210,0);fill-rule:nonzero;"/>
            <path d="M109.3,67.2C104.3,66.4 101,61.3 100.4,55.4C99.7,48.4 104.5,41.7 110.8,40.8C116,40.1 120.9,43.4 122.9,48.5C118.5,54 113.1,60.8 109.3,67.2" style="fill:rgb(255,210,0);fill-rule:nonzero;"/>
            <path d="M208.8,82.7L210.7,82.7C210.7,82.7 209.7,82.5 208,82.1C203,78.7 191.2,70.3 185.8,63.3L184.9,62.4C182.5,59.8 176.1,62.2 176.1,62.2L169,55.7L164.8,55.4L158.8,45.3L143.1,29.8L122.8,48.1L119.2,53.3L115.6,54.1C115.6,54.1 112.2,58.6 111.1,59.1C110,59.6 107.3,58.8 107.3,58.8L100.8,59.9L94.5,50.3C94.5,50.3 84.4,43.5 80.5,41.4C76.4,39.3 72,48.3 69,52.8C66,57.3 58,59.3 55,61.6C52,63.9 45.2,70.7 41.8,73.1C39.2,74.9 29.3,79.8 24.9,81.9C26.4,81.7 28.1,81.4 29.8,81.2C26.4,82.1 24.3,82.6 24.3,82.6L205.3,82.6C207.1,82.9 208.8,83.2 210.4,83.6C210.3,83.7 209.7,83.3 208.8,82.7" style="fill:rgb(6,53,122);fill-rule:nonzero;"/>
            <path d="M125.8,42.4C127.1,41 141.4,29 142.3,28.3" style="fill:rgb(251,210,40);fill-rule:nonzero;"/>
            <path d="M210.7,84C209.4,84.4 203,79.6 201.9,79.2C200.8,78.7 199,77.6 197.8,76.7C196.7,76 192.3,71.1 190.8,69.6C189.3,68.3 184.1,63.2 182.4,62.6C180.6,61.8 178.2,63.9 176.9,64.5C175.7,64.9 173.4,62 172.8,61.2C172.2,60.2 170.6,57.1 167.9,57.2C166.5,57.2 153.9,65.9 153.9,65.9C153.9,65.9 157.8,59.6 160.9,56.4C163.4,53.9 162.2,52.2 161.4,51.5C160.8,50.8 155.1,42.3 154.5,41.7C153.9,41 152.4,40.6 151.9,39.4C151.4,38.2 149.9,38.1 149.9,38.1C149.9,38.1 147.9,35.6 146.8,35.1C145.7,34.8 143.7,32.2 142.4,31.6C141.2,30.9 134.3,38.7 132.7,40C130.9,41.3 123.1,49.1 122.4,50C121.8,51.1 121.4,53.3 121.2,54.7C120.8,56.3 118.2,56.3 116.9,56C115.7,55.9 115.4,57.6 115.2,58.8C114.8,60 114.2,60.2 113,60.6C112,60.8 110.3,62.4 110.2,63.1C109.9,63.8 92.6,74.3 94.1,72.7C97.2,69.3 106,61.6 106.3,60.3C106.7,58.6 102.3,60.9 101.5,61.6C100.6,62.3 96.8,57.2 95.8,55.7C94.9,54 93.2,52 92.6,50.8C92,49.6 90.5,49.7 89.4,49.5C88.3,49.2 86.3,46.8 85.3,46.7C84.3,46.6 82.4,43.8 80.1,42.7C77.7,41.6 75.1,46 73.6,47.7C72.1,49.5 68.6,54.2 67.6,56C66.6,57.8 62.9,59.3 61.4,60C59.9,60.9 58.9,60.6 58.3,61.3C57.6,62.2 55.5,63.6 54,64.2C52.7,64.7 50.9,67.2 50.9,68.4C50.9,69.6 49.3,69.1 47.9,70.2C46.7,71.3 44.4,72.7 42.6,74.5C41.4,75.6 40.1,77 38.8,77.2C37.3,77.6 34.8,77.7 33.1,78.4C31.5,79.1 30,80.7 28.4,81.6C26.6,82.7 23.3,82.6 24.3,81.4C25.3,80.2 28.5,79.7 29.8,77.8C31,75.9 35.6,75.2 38,74.6C40.2,74 39.7,72.1 42.6,71C45.3,69.9 46.3,68.8 47.3,67.8C48.9,66 49.8,64.1 49.8,64.1C49.8,64.1 52.3,63.5 53.8,62.3C55.3,61 56.3,59.3 60.3,57.6C64.3,56.1 66.5,54.5 67.4,52.7C68.1,51.1 71.5,46 72.8,44.8C74,43.6 79,40 79.9,39.2C80.6,38.5 85.2,42.7 86.7,44.2C88.2,45.5 92,48.2 93.5,48.7C95,49 98.8,57 100.3,58.5C101.8,59.8 103.3,56.9 106.4,56.8C109.5,56.7 109.7,57.9 110.8,57.9C111.9,57.9 113.1,55.4 113.6,54.2C114,53 119.3,53.5 119.3,53.5C119.3,53.5 120.4,50.4 120.7,48.8C120.8,47.4 124.8,44 126,42.6C127.3,41.2 141.6,29.2 142.5,28.5C143.4,27.8 146.5,31.9 148.1,33.5C149.9,35.2 149.5,34.7 150.7,35.5C151.9,36.3 152.2,36.8 153.3,37.5C154.5,38 155,39.9 155,39.9L165.6,52.9C165.6,52.9 166.1,55.3 167.3,54.6C168.6,53.9 169.6,54.9 169.6,54.9C169.6,54.9 171.7,57.4 174.5,59.6C177.2,61.8 179.2,61.9 181.6,60.8C183.8,59.9 186,62.4 186,62.4L201.1,76.8C201.1,76.8 203.7,78.3 204.7,78.9C205.8,79.6 208.2,79.5 208.8,81C209.2,82.3 213.2,83.4 210.7,84" style="fill:rgb(255,210,0);fill-rule:nonzero;"/>
            <path d="M112.8,56.4L133.3,45.9L112.5,55.7L111.3,55.4L110.5,55.6L108.9,56.3L108.9,56.5L88,53.6L109.5,57.1L88.1,61.8L108.4,58.1L90.5,69.6L108.9,58.8L94.9,76.1L109.3,59.5L99.4,79.9L110,59.8L107.8,83.1L110.8,59.4L115,82.9L111.3,58.5L121.8,80.2L111.6,58.3L127.5,75.2L111.9,57.9L131.6,68.4L112.1,57.5L133.7,60.6L112.7,57L133.5,52.3L112.8,56.4Z" style="fill:white;fill-rule:nonzero;"/>
        </g>
    </g>
</svg>
