<svg width="127" height="125" viewBox="0 0 127 125" fill="none" xmlns="http://www.w3.org/2000/svg">
<path d="M116.922 31.9287H125.874C125.747 24.0706 119.254 18.6427 109.44 18.6427C99.774 18.6427 92.6929 23.9838 92.7397 31.9955C92.7196 38.4983 97.3157 42.2237 104.764 44.0129C111.859 45.7822 117.023 46.57 117.056 50.7561C117.036 53.9875 113.976 56.164 109.24 56.164C104.397 56.164 100.923 53.9007 100.622 49.4876H91.604C91.8378 59.0281 98.6785 63.9753 109.374 63.9753C120.136 63.9753 126.455 58.8278 126.475 50.7561C126.442 39.8669 114.624 38.1311 109.307 36.8692C105.472 35.9879 102.226 34.5592 102.293 31.3946C102.293 28.5504 104.811 26.4541 109.374 26.4541C113.829 26.4541 116.575 28.4637 116.922 31.9287Z" fill="#302D2A"/>
<path d="M25.3184 31.9287H34.27C34.1431 24.0706 27.6498 18.6427 17.8364 18.6427C8.17002 18.6427 1.08889 23.9838 1.13565 31.9955C1.11561 38.4983 5.71167 42.2237 13.1602 44.0129C20.2547 45.7822 25.4186 46.57 25.452 50.7561C25.432 53.9875 22.3724 56.164 17.636 56.164C12.7928 56.164 9.31904 53.9007 9.01842 49.4876H0C0.233811 59.0281 7.07445 63.9753 17.7696 63.9753C28.5316 63.9753 34.8512 58.8278 34.8712 50.7561C34.8378 39.8669 23.0204 38.1311 17.7028 36.8692C13.8683 35.9879 10.6217 34.5592 10.6885 31.3946C10.6885 28.5504 13.207 26.4541 17.7696 26.4541C22.2254 26.4541 24.971 28.4637 25.3184 31.9287Z" fill="#302D2A"/>
<path d="M39.1631 19.1792V63.4389H48.2833V37.4195H48.6856L63.0365 59.3482H63.4388L77.7226 37.5537H78.125V63.4389H87.2452V19.1792H78.125L63.4388 43.4549H63.0365L48.2833 19.1792H39.1631Z" fill="#302D2A"/>
<path fill-rule="evenodd" clip-rule="evenodd" d="M50.2951 73.4979C48.9002 73.4979 48.2833 72.5255 48.2833 71.8884V66.6577H39.1631V71.8214C39.1631 78.058 44.4474 82.618 50.3621 82.618H76.0461C81.9608 82.618 87.2452 78.058 87.2452 71.8214V66.6577H78.125V71.8884C78.125 72.5255 77.508 73.4979 76.1132 73.4979H50.2951Z" fill="#A2D510"/>
<path fill-rule="evenodd" clip-rule="evenodd" d="M50.2951 9.12017C48.9002 9.12017 48.2833 10.0925 48.2833 10.7296V15.9603H39.1631V10.7967C39.1631 4.56008 44.4474 0 50.3621 0H76.0461C81.9608 0 87.2452 4.56008 87.2452 10.7967V15.9603H78.125V10.7296C78.125 10.0925 77.508 9.12017 76.1132 9.12017H50.2951Z" fill="#A2D510"/>
<path d="M10.641 99.5408H13.9023C13.8552 96.6724 11.4976 94.692 7.91405 94.692C4.38554 94.692 1.80006 96.6409 1.81578 99.5643C1.80792 101.938 3.4818 103.297 6.20088 103.949L7.95335 104.39C9.70582 104.814 10.6803 105.317 10.6881 106.401C10.6803 107.58 9.56436 108.382 7.83547 108.382C6.06728 108.382 4.79419 107.564 4.68417 105.953H1.39141C1.47786 109.435 3.96904 111.234 7.87476 111.234C11.8041 111.234 14.1145 109.356 14.1224 106.409C14.1145 103.729 12.0948 102.307 9.29717 101.678L7.85119 101.333C6.45235 101.01 5.28142 100.492 5.305 99.3364C5.305 98.2991 6.22445 97.5368 7.89048 97.5368C9.51721 97.5368 10.5153 98.2755 10.641 99.5408ZM31.2011 102.959C31.2011 97.694 27.9319 94.692 23.6647 94.692C19.3739 94.692 16.1283 97.694 16.1283 102.959C16.1283 108.201 19.3739 111.227 23.6647 111.227C27.9319 111.227 31.2011 108.225 31.2011 102.959ZM27.7511 102.959C27.7511 106.37 26.1323 108.217 23.6647 108.217C21.1892 108.217 19.5782 106.37 19.5782 102.959C19.5782 99.5486 21.1892 97.7019 23.6647 97.7019C26.1323 97.7019 27.7511 99.5486 27.7511 102.959ZM33.7217 111.006H37.1245V104.358H43.6707V101.553H37.1245V97.7176H44.378V94.912H33.7217V111.006ZM46.0538 97.7176H50.9812V111.006H54.3447V97.7176H59.272V94.912H46.0538V97.7176ZM65.0716 111.006H68.388L71.445 100.484H71.5707L74.6356 111.006H77.9519L82.557 94.912H78.8399L76.1758 106.118H76.0344L73.1031 94.912H69.9204L66.9813 106.095H66.8477L64.1836 94.912H60.4665L65.0716 111.006ZM85.5099 111.006L86.7044 107.337H92.5119L93.7064 111.006H97.3528L91.8047 94.912H87.4195L81.8635 111.006H85.5099ZM87.5689 104.68L89.5492 98.5899H89.675L91.6553 104.68H87.5689ZM99.29 111.006H102.693V105.301H105.176L108.225 111.006H111.982L108.563 104.751C110.394 103.965 111.408 102.37 111.408 100.169C111.408 96.971 109.294 94.912 105.64 94.912H99.29V111.006ZM102.693 102.566V97.694H104.987C106.952 97.694 107.903 98.5663 107.903 100.169C107.903 101.765 106.952 102.566 105.003 102.566H102.693ZM113.813 111.006H124.689V108.201H117.215V104.358H124.1V101.553H117.215V97.7176H124.658V94.912H113.813V111.006Z" fill="#302D2A"/>
<path d="M36.324 117.906H38.351C38.3434 116.374 37.1622 115.36 35.2724 115.36C33.4168 115.36 32.1061 116.359 32.1175 117.845C32.1137 119.064 32.9596 119.742 34.3427 120.039L35.12 120.207C35.9887 120.397 36.2859 120.615 36.2935 120.969C36.2859 121.354 35.9354 121.624 35.2571 121.624C34.4455 121.624 33.9655 121.243 33.9312 120.527H31.9194C31.927 122.485 33.2529 123.362 35.2876 123.362C37.2651 123.362 38.4501 122.508 38.4577 120.969C38.4501 119.78 37.7414 118.946 36.0192 118.576L35.3791 118.439C34.6399 118.283 34.3084 118.066 34.3274 117.692C34.3312 117.349 34.617 117.098 35.2724 117.098C35.9582 117.098 36.2821 117.399 36.324 117.906ZM43.3421 117.174H45.6892V123.27H47.7772V117.174H50.1243V115.467H43.3421V117.174ZM59.8314 115.467V120.283C59.8314 121.011 59.3094 121.533 58.5817 121.533C57.8539 121.533 57.3319 121.011 57.3319 120.283V115.467H55.2134V120.466C55.2134 122.249 56.5622 123.362 58.5817 123.362C60.5858 123.362 61.9499 122.249 61.9499 120.466V115.467H59.8314ZM70.2511 123.27C72.6286 123.27 74.1375 121.807 74.1375 119.369C74.1375 116.93 72.6286 115.467 70.2206 115.467H67.2486V123.27H70.2511ZM69.3671 121.472V117.265H70.1139C71.3332 117.265 72.0038 117.738 72.0038 119.369C72.0038 120.999 71.3332 121.472 70.1749 121.472H69.3671ZM81.528 115.467H79.4095V123.27H81.528V115.467ZM94.3834 119.369C94.3834 116.763 92.7068 115.36 90.5884 115.36C88.4546 115.36 86.7934 116.763 86.7934 119.369C86.7934 121.96 88.4546 123.377 90.5884 123.377C92.7068 123.377 94.3834 121.975 94.3834 119.369ZM92.2039 119.369C92.2039 120.771 91.64 121.533 90.5884 121.533C89.5367 121.533 88.9728 120.771 88.9728 119.369C88.9728 117.967 89.5367 117.204 90.5884 117.204C91.64 117.204 92.2039 117.967 92.2039 119.369Z" fill="#8EBE06"/>
</svg>
